<svg width="64" height="65" viewBox="0 0 64 65" fill="none" xmlns="http://www.w3.org/2000/svg">
<g id="icon-git">
<path id="Vector" d="M56.268 29.9665L34.5346 8.23317C33.868 7.5665 32.9346 7.1665 32.0013 7.1665C31.068 7.1665 30.1346 7.5665 29.468 8.23317L24.8013 12.8998L30.268 18.3665C30.8013 18.0998 31.3346 17.9665 32.0013 17.9665C34.268 17.9665 36.0013 19.6998 36.0013 21.9665C36.0013 22.6332 35.868 23.1665 35.6013 23.6998L40.9346 29.0332C41.468 28.7665 42.0013 28.6332 42.668 28.6332C44.9346 28.6332 46.668 30.3665 46.668 32.6332C46.668 34.8998 44.9346 36.6332 42.668 36.6332C40.4013 36.6332 38.668 34.8998 38.668 32.6332C38.668 31.9665 38.8013 31.4332 39.068 30.8998L33.7346 25.5665C33.6013 25.5665 33.468 25.6998 33.3346 25.6998V39.5665C34.9346 40.0998 36.0013 41.5665 36.0013 43.2998C36.0013 45.5665 34.268 47.2998 32.0013 47.2998C29.7346 47.2998 28.0013 45.5665 28.0013 43.2998C28.0013 41.5665 29.068 40.0998 30.668 39.5665V25.5665C29.068 25.0332 28.0013 23.5665 28.0013 21.8332C28.0013 21.1665 28.1346 20.6332 28.4013 20.0998L22.9346 14.6332L7.73464 29.9665C7.06797 30.6332 6.66797 31.5665 6.66797 32.4998C6.66797 33.4332 7.06797 34.3665 7.73464 35.0332L29.468 56.7665C30.1346 57.4332 31.068 57.8332 32.0013 57.8332C32.9346 57.8332 33.868 57.4332 34.5346 56.7665L56.268 35.0332C56.9346 34.3665 57.3346 33.4332 57.3346 32.4998C57.3346 31.5665 56.9346 30.6332 56.268 29.9665Z" fill="#F4511E"/>
</g>
</svg>
