<svg width="64" height="65" viewBox="0 0 64 65" fill="none" xmlns="http://www.w3.org/2000/svg">
<g id="icon-javscript">
<path id="Vector" d="M0 64.5V0.5H64V64.5H0Z" fill="#FFD600"/>
<path id="Vector_2" d="M41.8471 48.4057C43.0773 50.4039 44.4142 52.3186 47.2462 52.3186C49.6249 52.3186 50.8729 51.1363 50.8729 49.5008C50.8729 47.5434 49.5822 46.8483 46.9653 45.7088L45.5306 45.0972C41.3902 43.3408 38.6364 41.1399 38.6364 36.491C38.6364 32.2066 41.9164 28.9461 47.0417 28.9461C50.6915 28.9461 53.3137 30.2101 55.2053 33.5203L50.736 36.3772C49.7529 34.6208 48.6897 33.9292 47.0417 33.9292C45.36 33.9292 44.2951 34.9906 44.2951 36.3772C44.2951 38.091 45.3618 38.7843 47.824 39.8457L49.2586 40.4572C54.1386 42.5354 56.8906 44.6581 56.8906 49.4297C56.8906 54.571 52.8302 57.3888 47.3795 57.3888C42.048 57.3888 39.0204 54.7132 37.3351 51.4012L41.8471 48.4057ZM21.2497 48.5514C22.1493 50.1621 23.5164 51.4012 25.4826 51.4012C27.3635 51.4012 28.4462 50.6581 28.4462 47.7692V28.9443H34.3715V48.6795C34.3715 54.6652 30.8995 57.3888 25.8293 57.3888C21.248 57.3888 17.9413 54.2848 16.5938 51.4012L21.2497 48.5514Z" fill="#000001"/>
</g>
</svg>
