<svg width="67" height="65" viewBox="0 0 67 65" fill="none" xmlns="http://www.w3.org/2000/svg">
<g id="icon-nest">
<path id="Vector" fill-rule="evenodd" clip-rule="evenodd" d="M38.2878 1.56152C37.836 1.56152 37.4165 1.65861 37.0292 1.78806C37.8521 2.33821 38.3039 3.06636 38.5298 3.89158C38.546 4.00485 38.5782 4.08576 38.5943 4.19902C38.6105 4.29611 38.6266 4.39319 38.6266 4.49028C38.6912 5.9142 38.2555 6.09219 37.9489 6.9336C37.481 8.01773 37.6101 9.18276 38.1748 10.1213C38.2232 10.2345 38.2878 10.364 38.3684 10.4772C37.7553 6.38345 41.1598 5.76858 41.7891 4.49028C41.8375 3.37379 40.9178 2.62947 40.1917 2.11168C39.4979 1.69097 38.8686 1.56152 38.2878 1.56152ZM43.4187 2.48384C43.3541 2.856 43.4025 2.75891 43.3865 2.95309C43.3703 3.08253 43.3703 3.24435 43.3542 3.37379C43.322 3.50324 43.2896 3.63269 43.2413 3.76214C43.209 3.89158 43.1606 4.02103 43.1122 4.15048C43.0476 4.27993 42.9992 4.39319 42.9347 4.52264C42.8863 4.58739 42.854 4.65209 42.8056 4.71681C42.7734 4.76536 42.741 4.8139 42.7088 4.86244C42.6281 4.97571 42.5475 5.08898 42.4668 5.18606C42.37 5.28315 42.2893 5.39641 42.1763 5.47732V5.49352C42.0795 5.57443 41.9827 5.67151 41.8698 5.75242C41.5309 6.01131 41.1437 6.20548 40.7887 6.4482C40.6758 6.5291 40.5628 6.59383 40.466 6.69092C40.3531 6.77182 40.2563 6.85272 40.1595 6.94981C40.0465 7.04689 39.9658 7.14398 39.869 7.25725C39.7884 7.35434 39.6916 7.4676 39.627 7.58087C39.5463 7.69413 39.4657 7.8074 39.4011 7.92067C39.3366 8.05011 39.2882 8.16338 39.2236 8.29283C39.1752 8.42227 39.1268 8.53554 39.0946 8.66499C39.0461 8.81062 39.0139 8.94007 38.9816 9.06952C38.9655 9.13427 38.9655 9.21514 38.9494 9.27987C38.9332 9.34462 38.9332 9.40931 38.9171 9.47404C38.9171 9.60349 38.901 9.74912 38.901 9.87856C38.901 9.97565 38.901 10.0727 38.9171 10.1698C38.9171 10.2993 38.9333 10.4287 38.9655 10.5743C38.9817 10.7038 39.0139 10.8332 39.0462 10.9627C39.0946 11.0921 39.1269 11.2216 39.1753 11.351C39.2075 11.4319 39.256 11.5128 39.2882 11.5776L35.5772 10.1375C34.9479 9.95947 34.3348 9.79766 33.7055 9.65203C33.3667 9.57113 33.0278 9.49022 32.689 9.40932C31.7209 9.21514 30.7367 9.06952 29.7524 8.97243C29.7202 8.97243 29.704 8.95623 29.6718 8.95623C28.7036 8.85915 27.7517 8.8106 26.7836 8.8106C26.0736 8.8106 25.3637 8.84294 24.6699 8.89151C23.6856 8.95626 22.7014 9.08568 21.7172 9.24748C21.4751 9.27982 21.2331 9.3284 20.9911 9.37694C20.4909 9.47402 20.0069 9.58729 19.5389 9.70056C19.2969 9.76531 19.0549 9.83 18.8129 9.89472C18.5708 9.99181 18.345 10.1051 18.1191 10.2022C17.9416 10.2831 17.7641 10.364 17.5866 10.4449C17.5544 10.4611 17.522 10.4611 17.5059 10.4772C17.3446 10.5581 17.1994 10.6228 17.0542 10.7038C17.0057 10.72 16.9735 10.7361 16.9412 10.7523C16.7637 10.8332 16.5862 10.9303 16.441 11.0112C16.3281 11.0597 16.2151 11.1245 16.1183 11.173C16.0699 11.2053 16.0054 11.2378 15.9731 11.2539C15.8279 11.3348 15.6827 11.4157 15.5536 11.4966C15.4084 11.5775 15.2793 11.6584 15.1663 11.7393C15.0534 11.8202 14.9405 11.885 14.8436 11.9659C14.8275 11.9821 14.8114 11.9821 14.7952 11.9982C14.6984 12.063 14.5855 12.1438 14.4887 12.2247C14.4887 12.2247 14.4725 12.2409 14.4564 12.2571C14.3758 12.3218 14.2951 12.3865 14.2144 12.4512C14.1822 12.4674 14.1498 12.4998 14.1176 12.516C14.0369 12.5807 13.9562 12.6616 13.8756 12.7263C13.8594 12.7587 13.8272 12.7749 13.811 12.7911C13.7142 12.8882 13.6174 12.9691 13.5206 13.0662C13.5044 13.0662 13.5044 13.0824 13.4883 13.0985C13.3915 13.1794 13.2947 13.2765 13.1979 13.3736C13.1817 13.3898 13.1817 13.4059 13.1657 13.4059C13.085 13.4868 13.0043 13.5677 12.9236 13.6648C12.8914 13.6972 12.843 13.7296 12.8107 13.7619C12.73 13.859 12.6332 13.9561 12.5364 14.0532C12.5202 14.0855 12.488 14.1017 12.4718 14.1341C12.3427 14.2635 12.2298 14.393 12.1007 14.5224C12.0846 14.5386 12.0685 14.5547 12.0523 14.571C11.7941 14.846 11.5199 15.1211 11.2294 15.3638C10.939 15.6227 10.6324 15.8654 10.3259 16.0758C10.0032 16.3023 9.6966 16.4965 9.35776 16.6907C9.03506 16.8686 8.69622 17.0305 8.34125 17.1761C8.00242 17.3217 7.64745 17.4512 7.29248 17.5644C6.6148 17.7101 5.921 17.9851 5.324 18.0337C5.19492 18.0337 5.04971 18.066 4.92063 18.0822C4.77541 18.1146 4.64633 18.147 4.51725 18.1793C4.38817 18.2278 4.25909 18.2764 4.13001 18.3249C4.00093 18.3735 3.87185 18.4382 3.74277 18.5029C3.62982 18.5838 3.50075 18.6486 3.3878 18.7295C3.27486 18.8104 3.16191 18.9074 3.0651 19.0045C2.95216 19.0854 2.83921 19.1987 2.7424 19.2958C2.64558 19.4091 2.54877 19.5061 2.4681 19.6194C2.38743 19.7489 2.29062 19.8621 2.22607 19.9916C2.1454 20.1048 2.06473 20.2343 2.00018 20.3637C1.93562 20.5094 1.87111 20.6388 1.8227 20.7844C1.77429 20.9139 1.72589 21.0595 1.67748 21.2051C1.64524 21.3346 1.61292 21.464 1.59681 21.5935C1.59681 21.6097 1.58065 21.6258 1.58065 21.642C1.54841 21.7877 1.54841 21.9818 1.53224 22.0789C1.51608 22.1922 1.5 22.2893 1.5 22.4025C1.5 22.4673 1.5 22.5482 1.51616 22.6129C1.53232 22.7262 1.5484 22.8232 1.58073 22.9203C1.61297 23.0174 1.64529 23.1145 1.69367 23.2116V23.2278C1.74207 23.3249 1.80662 23.422 1.87115 23.5191C1.93572 23.6161 2.00024 23.7132 2.08091 23.8103C2.16158 23.8912 2.25839 23.9883 2.35521 24.0692C2.45202 24.1663 2.54883 24.2472 2.66177 24.3281C3.04901 24.6679 3.14582 24.7812 3.64601 25.0401C3.72668 25.0886 3.80736 25.121 3.90417 25.1695C3.92034 25.1695 3.93642 25.1857 3.95258 25.1857C3.95258 25.2181 3.95258 25.2343 3.96874 25.2666C3.9849 25.3961 4.01715 25.5255 4.04941 25.655C4.08166 25.8006 4.13009 25.9301 4.1785 26.0433C4.22691 26.1404 4.25917 26.2375 4.30758 26.3346C4.32374 26.3669 4.33982 26.3993 4.35598 26.4155C4.42055 26.5449 4.48506 26.6582 4.5496 26.7715C4.63028 26.8847 4.71095 26.998 4.79163 27.1113C4.8723 27.2083 4.96911 27.3216 5.06592 27.4187C5.16273 27.5158 5.25954 27.5967 5.37249 27.6938C5.37249 27.6938 5.38865 27.71 5.40474 27.71C5.50155 27.7909 5.59836 27.8718 5.69517 27.9365C5.80811 28.0174 5.92106 28.0822 6.05014 28.1469C6.16309 28.2116 6.29216 28.2763 6.42124 28.3249C6.51805 28.3734 6.63099 28.4058 6.74394 28.4381C6.76011 28.4544 6.77619 28.4544 6.80851 28.4705C6.87308 28.4867 6.95372 28.5028 7.01826 28.519C6.96986 29.3928 6.9537 30.218 7.08283 30.5093C7.22804 30.8329 7.93798 29.8459 8.64792 28.7132C8.55111 29.8297 8.48657 31.1403 8.64792 31.5287C8.82541 31.9332 9.79351 30.6711 10.6325 29.2795C22.0723 26.6259 32.5116 34.5545 33.6088 45.7517C33.3991 44.0042 31.2531 43.0333 30.2689 43.2761C29.7848 44.4735 28.9619 46.0106 27.6389 46.9653C27.7518 45.8974 27.7034 44.7971 27.4775 43.7291C27.1225 45.2178 26.4287 46.6093 25.4768 47.8067C23.9439 47.92 22.4111 47.1757 21.6043 46.0592C21.5398 46.0106 21.5237 45.9136 21.4753 45.8488C21.4269 45.7356 21.3785 45.6223 21.3462 45.509C21.2978 45.3958 21.2655 45.2825 21.2494 45.1692C21.2332 45.056 21.2332 44.9427 21.2332 44.8133C21.2332 44.7323 21.2332 44.6514 21.2332 44.5705C21.2494 44.4573 21.2816 44.344 21.3139 44.2307C21.3461 44.1175 21.3785 44.0042 21.4268 43.8909C21.4914 43.7777 21.5398 43.6644 21.6205 43.5511C21.8948 42.7744 21.8948 42.1434 21.3946 41.7712C21.2978 41.7065 21.201 41.658 21.088 41.6094C21.0234 41.5932 20.9428 41.5609 20.8783 41.5447C20.8298 41.5285 20.7976 41.5123 20.7492 41.4961C20.6362 41.4638 20.5233 41.4314 20.4103 41.4152C20.2974 41.3829 20.1844 41.3667 20.0715 41.3667C19.9586 41.3505 19.8295 41.3343 19.7165 41.3343C19.6359 41.3343 19.5552 41.3505 19.4745 41.3505C19.3454 41.3505 19.2325 41.3668 19.1195 41.3991C19.0066 41.4153 18.8936 41.4314 18.7807 41.4638C18.6678 41.4962 18.5548 41.5286 18.4419 41.5771C18.3289 41.6256 18.2321 41.6742 18.1192 41.7227C18.0224 41.7713 17.9255 41.836 17.8126 41.8845C14.0531 44.344 16.2959 50.1045 18.8614 51.7711C17.8933 51.9491 16.909 52.1595 16.6347 52.3698C16.6186 52.386 16.6025 52.4021 16.6025 52.4021C17.2963 52.8228 18.0224 53.1788 18.7807 53.4863C19.8134 53.8261 20.9105 54.1335 21.3946 54.263V54.2792C22.7338 54.5542 24.0891 54.6513 25.4606 54.5704C32.6084 54.0688 38.4655 48.6158 39.5304 41.4315C39.5626 41.5771 39.5949 41.7065 39.6272 41.8522C39.6756 42.1434 39.7401 42.4509 39.7724 42.7583V42.7745C39.8046 42.9202 39.8208 43.0658 39.837 43.1952V43.26C39.8531 43.4056 39.8692 43.5512 39.8692 43.6807C39.8854 43.8587 39.9015 44.0367 39.9015 44.2147V44.4736C39.9015 44.5545 39.9176 44.6515 39.9176 44.7325C39.9176 44.8295 39.9015 44.9266 39.9015 45.0237V45.2502C39.9015 45.3635 39.8853 45.4606 39.8853 45.5739C39.8853 45.6386 39.8853 45.7033 39.8691 45.7842C39.8691 45.8975 39.853 46.0107 39.853 46.1402C39.8368 46.1887 39.8368 46.2373 39.8368 46.2858C39.8206 46.4153 39.8045 46.5285 39.7884 46.658C39.7884 46.7065 39.7884 46.7551 39.7722 46.8036C39.756 46.9654 39.7238 47.1111 39.7077 47.2729V47.2891V47.3053C39.6754 47.4509 39.6431 47.6127 39.6108 47.7584V47.8069C39.5786 47.9525 39.5463 48.0982 39.514 48.2438C39.514 48.26 39.4979 48.2923 39.4979 48.3085C39.4656 48.4542 39.4333 48.5998 39.3849 48.7454V48.794C39.3365 48.9558 39.2881 49.1014 39.2559 49.247C39.2397 49.2632 39.2397 49.2794 39.2397 49.2794C39.1913 49.4412 39.1429 49.603 39.0945 49.7648C39.0299 49.9266 38.9816 50.0722 38.917 50.234C38.8525 50.3959 38.8041 50.5577 38.7395 50.7033C38.675 50.8651 38.6104 51.0107 38.5459 51.1725H38.5297C38.4652 51.3182 38.4006 51.48 38.32 51.6256C38.3038 51.6742 38.2877 51.7065 38.2716 51.7389C38.2554 51.7551 38.2554 51.7712 38.2393 51.7874C37.1905 53.9071 35.6416 55.7679 33.7054 57.2242C33.5763 57.3051 33.4472 57.4022 33.3181 57.4993C33.2859 57.5316 33.2375 57.5478 33.2052 57.5802C33.0922 57.6611 32.9793 57.742 32.8502 57.8229L32.8986 57.92H32.9148C33.1407 57.8877 33.3666 57.8553 33.5924 57.8229H33.6086C34.0281 57.7582 34.4476 57.6773 34.8671 57.5964C34.9801 57.5802 35.1092 57.5478 35.2221 57.5155C35.3028 57.4992 35.3673 57.4831 35.448 57.4669C35.5609 57.4507 35.6739 57.4184 35.7868 57.4022C35.8836 57.3699 35.9805 57.3536 36.0773 57.3213C37.6908 56.9329 39.2559 56.399 40.7564 55.7679C38.191 59.2792 34.7542 62.1108 30.7366 63.9717C32.5921 63.8422 34.4476 63.5348 36.2386 63.017C42.741 61.0914 48.2108 56.7064 51.4862 50.8003C50.8247 54.5382 49.3403 58.098 47.1459 61.2047C48.711 60.1691 50.147 58.9717 51.4539 57.6125C55.0682 53.8262 57.4401 49.0205 58.2468 43.8587C58.7954 46.4153 58.9567 49.0528 58.7147 51.6579C70.3642 35.3637 59.6828 18.4708 55.2134 14.021C55.1972 13.9887 55.1812 13.9725 55.1812 13.9401C55.165 13.9563 55.165 13.9563 55.165 13.9724C55.165 13.9562 55.165 13.9562 55.1488 13.9401C55.1488 14.1343 55.1327 14.3284 55.1166 14.5226C55.0682 14.8948 55.0198 15.2508 54.9552 15.6067C54.8746 15.9627 54.7778 16.3187 54.6809 16.6747C54.568 17.0145 54.4389 17.3705 54.2937 17.7103C54.1485 18.0339 53.9871 18.3737 53.8097 18.6973C53.6322 19.0048 53.4385 19.3284 53.2288 19.6196C53.019 19.9271 52.7931 20.2183 52.5672 20.4934C52.3252 20.7847 52.0671 21.0436 51.8089 21.3024C51.6476 21.4481 51.5023 21.5775 51.341 21.707C51.2119 21.8202 51.099 21.9173 50.9699 22.0306C50.6795 22.2571 50.389 22.4675 50.0663 22.6616C49.7598 22.8558 49.4371 23.05 49.1144 23.2118C48.7755 23.3736 48.4367 23.5192 48.0979 23.6649C47.759 23.7943 47.404 23.9076 47.0491 24.0047C46.6941 24.1017 46.323 24.1827 45.968 24.2474C45.5969 24.3121 45.2258 24.3445 44.8708 24.3768C44.6127 24.393 44.3545 24.4092 44.0964 24.4092C43.7253 24.4092 43.3542 24.3768 42.9992 24.3444C42.6281 24.3121 42.257 24.2635 41.902 24.1826C41.5309 24.1179 41.1759 24.0208 40.8209 23.9075H40.8048C41.1598 23.8752 41.5147 23.8428 41.8697 23.7781C42.2408 23.7133 42.5958 23.6325 42.9508 23.5354C43.3057 23.4383 43.6607 23.325 43.9995 23.1956C44.3545 23.0661 44.6933 22.9043 45.016 22.7425C45.3549 22.5807 45.6614 22.4027 45.9841 22.2085C46.2907 21.9982 46.5973 21.7878 46.8877 21.5613C47.1781 21.3348 47.4524 21.092 47.7106 20.8331C47.9849 20.5904 48.2269 20.3154 48.4689 20.0403C48.711 19.749 48.9368 19.4578 49.1466 19.1665C49.1789 19.118 49.2112 19.0532 49.2434 19.0047C49.4048 18.7458 49.5661 18.4869 49.7113 18.228C49.8888 17.9044 50.0502 17.5808 50.1954 17.241C50.3406 16.9012 50.4697 16.5614 50.5826 16.2054C50.6956 15.8656 50.7762 15.5096 50.8569 15.1536C50.9215 14.7815 50.986 14.4255 51.0183 14.0695C51.0505 13.6973 51.0828 13.3252 51.0828 12.9692C51.0828 12.7103 51.0667 12.4514 51.0506 12.1925C51.0183 11.8203 50.9699 11.4644 50.9215 11.1084C50.8569 10.7362 50.7763 10.3802 50.6795 10.0243C50.5665 9.68446 50.4536 9.32848 50.3245 8.98868C50.1954 8.64888 50.0341 8.30908 49.8727 7.98545C49.6952 7.66184 49.5178 7.33822 49.3241 7.03078C49.1144 6.72335 48.9046 6.43209 48.6787 6.14083C48.4367 5.86575 48.1947 5.59067 47.9365 5.3156C47.8074 5.18615 47.6622 5.04052 47.517 4.91108C46.7909 4.34474 46.0326 3.81077 45.2742 3.32534C45.1613 3.26059 45.0645 3.21207 44.9515 3.16353C44.4191 2.82373 43.9189 2.64564 43.4187 2.48384Z" fill="#E0234E"/>
</g>
</svg>
