<svg width="70" height="65" viewBox="0 0 70 65" fill="none" xmlns="http://www.w3.org/2000/svg">
<g id="icon-react" clip-path="url(#clip0_470_2733)">
<path id="Vector" d="M35.0908 39.2725C38.7631 39.2725 41.7401 36.2404 41.7401 32.5C41.7401 28.7597 38.7631 25.7275 35.0908 25.7275C31.4184 25.7275 28.4414 28.7597 28.4414 32.5C28.4414 36.2404 31.4184 39.2725 35.0908 39.2725Z" fill="#087EA4"/>
<g id="Group">
<path id="Vector_2" d="M35.0944 47.7379C53.4561 47.7379 68.3412 40.9156 68.3412 32.4998C68.3412 24.084 53.4561 17.2617 35.0944 17.2617C16.7327 17.2617 1.84766 24.084 1.84766 32.4998C1.84766 40.9156 16.7327 47.7379 35.0944 47.7379Z" stroke="#087EA4" stroke-width="3"/>
<path id="Vector_3" d="M22.1359 40.119C31.3167 56.3152 44.5601 66.0336 51.7159 61.8257C58.8716 57.6178 57.23 41.0771 48.0492 24.8809C38.8683 8.68475 25.6249 -1.03366 18.4691 3.17422C11.3134 7.38211 12.955 23.9228 22.1359 40.119Z" stroke="#087EA4" stroke-width="3"/>
<path id="Vector_4" d="M22.1391 24.8811C12.9583 41.0772 11.3166 57.618 18.4724 61.8259C25.6281 66.0337 38.8716 56.3153 48.0524 40.1192C57.2332 23.923 58.8749 7.38229 51.7191 3.17441C44.5634 -1.03348 31.32 8.68494 22.1391 24.8811Z" stroke="#087EA4" stroke-width="3"/>
</g>
</g>
<defs>
<clipPath id="clip0_470_2733">
<rect width="69.8182" height="64" fill="white" transform="translate(0.183594 0.5)"/>
</clipPath>
</defs>
</svg>
