<svg width="105" height="65" viewBox="0 0 105 65" fill="none" xmlns="http://www.w3.org/2000/svg">
<g id="icon-tailwindcss" clip-path="url(#clip0_470_2782)">
<g id="Clip path group">
<mask id="mask0_470_2782" style="mask-type:luminance" maskUnits="userSpaceOnUse" x="0" y="0" width="105" height="64">
<g id="prefix__clip0">
<path id="Vector" d="M0.273438 0.5H105.001V63.3364H0.273438V0.5Z" fill="white"/>
</g>
</mask>
<g mask="url(#mask0_470_2782)">
<g id="Group">
<path id="Vector_2" fill-rule="evenodd" clip-rule="evenodd" d="M52.6371 0.5C38.6734 0.5 29.9462 7.48182 26.4553 21.4455C31.6916 14.4636 37.8007 11.8455 44.7825 13.5909C48.766 14.5858 51.6131 17.4775 54.7646 20.6755C59.8982 25.8867 65.8405 31.9182 78.8189 31.9182C92.7825 31.9182 101.51 24.9364 105.001 10.9727C99.7643 17.9545 93.6553 20.5727 86.6734 18.8273C82.6899 17.8324 79.8429 14.9407 76.6914 11.7427C71.5578 6.53151 65.6155 0.5 52.6371 0.5ZM26.4553 31.9182C12.4916 31.9182 3.76435 38.9 0.273438 52.8636C5.5098 45.8818 11.6189 43.2636 18.6007 45.0091C22.5842 46.0059 25.4313 48.8956 28.5828 52.0937C33.7163 57.3048 39.6586 63.3364 52.6371 63.3364C66.6007 63.3364 75.328 56.3545 78.8189 42.3909C73.5825 49.3727 67.4734 51.9909 60.4916 50.2455C56.5081 49.2505 53.6611 46.3589 50.5096 43.1608C45.376 37.9497 39.4337 31.9182 26.4553 31.9182Z" fill="#38BDF8"/>
</g>
</g>
</g>
</g>
<defs>
<clipPath id="clip0_470_2782">
<rect width="104.727" height="64" fill="white" transform="translate(0.273438 0.5)"/>
</clipPath>
</defs>
</svg>
