<svg width="65" height="65" viewBox="0 0 65 65" fill="none" xmlns="http://www.w3.org/2000/svg">
<g id="icon-typescript" clip-path="url(#clip0_470_2728)">
<path id="Vector" d="M61.0898 0.5H3.08984C1.43299 0.5 0.0898438 1.84315 0.0898438 3.5V61.5C0.0898438 63.1569 1.43299 64.5 3.08984 64.5H61.0898C62.7467 64.5 64.0898 63.1569 64.0898 61.5V3.5C64.0898 1.84315 62.7467 0.5 61.0898 0.5Z" fill="#3178C6"/>
<path id="Vector_2" fill-rule="evenodd" clip-rule="evenodd" d="M37.2209 50.234V57.247C38.3571 57.831 39.7008 58.2695 41.2522 58.5615C42.8035 58.854 44.4386 59 46.1574 59C47.8326 59 49.4239 58.8395 50.9313 58.518C52.4393 58.1965 53.7608 57.667 54.8973 56.929C56.0333 56.191 56.9328 55.227 57.5958 54.036C58.2583 52.8455 58.5898 51.3735 58.5898 49.6203C58.5898 48.3493 58.4003 47.2353 58.0218 46.2783C57.6428 45.3214 57.0968 44.4704 56.3828 43.7252C55.6693 42.9801 54.8133 42.3117 53.8158 41.72C52.8178 41.1283 51.6928 40.5694 50.4398 40.0435C49.5222 39.6636 48.6992 39.2947 47.9709 38.9368C47.2426 38.5788 46.6235 38.2136 46.1137 37.841C45.6039 37.4684 45.2106 37.074 44.9338 36.6576C44.6571 36.2413 44.5187 35.77 44.5187 35.2441C44.5187 34.7619 44.6425 34.3273 44.8901 33.9402C45.1378 33.553 45.4874 33.2206 45.9389 32.943C46.3905 32.6655 46.944 32.45 47.5995 32.2966C48.255 32.1431 48.9833 32.0664 49.7844 32.0664C50.3673 32.0664 50.9823 32.1103 51.6308 32.1979C52.2788 32.2856 52.9308 32.4207 53.5863 32.6034C54.2418 32.786 54.8788 33.0161 55.4983 33.2937C56.1173 33.5713 56.6888 33.8927 57.2133 34.2579V27.7054C56.1498 27.2963 54.9883 26.9931 53.7283 26.7959C52.4683 26.5986 51.0228 26.5 49.3911 26.5C47.7306 26.5 46.1574 26.6789 44.6716 27.0369C43.1859 27.3948 41.8785 27.9537 40.7496 28.7134C39.6207 29.4731 38.7285 30.441 38.0731 31.6171C37.4176 32.7932 37.0898 34.1995 37.0898 35.8358C37.0898 37.9251 37.6907 39.7074 38.8924 41.183C40.0942 42.6587 41.9186 43.9079 44.3657 44.9305C45.3271 45.325 46.223 45.7122 47.0532 46.092C47.8835 46.4719 48.6009 46.8664 49.2054 47.2755C49.8099 47.6846 50.2868 48.1302 50.6363 48.6123C50.9863 49.0944 51.1608 49.6423 51.1608 50.2559C51.1608 50.709 51.0518 51.129 50.8333 51.516C50.6148 51.903 50.2833 52.239 49.8391 52.524C49.3948 52.809 48.8413 53.032 48.1785 53.1925C47.5157 53.353 46.7401 53.4335 45.8515 53.4335C44.3366 53.4335 42.8363 53.167 41.3505 52.6335C39.8647 52.1005 38.4882 51.3005 37.2209 50.234ZM25.4411 32.7772H34.5898V27H9.08984V32.7772H18.1938V58.5H25.4411V32.7772Z" fill="white"/>
</g>
<defs>
<clipPath id="clip0_470_2728">
<rect width="64" height="64" fill="white" transform="translate(0.0898438 0.5)"/>
</clipPath>
</defs>
</svg>
